<?xml version="1.0" encoding="utf-8"?>
<!-- Generator: Adobe Illustrator 15.0.2, SVG Export Plug-In . SVG Version: 6.00 Build 0)  -->
<!DOCTYPE svg PUBLIC "-//W3C//DTD SVG 1.1//EN" "http://www.w3.org/Graphics/SVG/1.1/DTD/svg11.dtd">
<svg xmlns="http://www.w3.org/2000/svg" xmlns:xlink="http://www.w3.org/1999/xlink" version="1.1" id="Calque_1" x="0px" y="0px" width="48" height="48" viewBox="0 0 512 512" enable-background="new 0 0 512 512" xml:space="preserve">
<g>
	<path fill="#F1BE41" d="M374.809,237.283c25.064-16.924,41.014-38.732,41.014-69.654s-12.045-50.127-42.316-68.678   c-30.271-18.555-76.818-21.484-76.818-21.484V0h-46.221v77.467h-33.852V0h-47.852v77.467H72.092v48.824c0,0,9.439,0,36.131,0   s24.736,15.625,24.736,15.625s0,193.018,0,217.428s-18.553,24.086-18.553,24.086H77.951l-2.604,49.801h93.418V512h47.85v-78.445   h34.178V512h45.895v-78.445c104.16,0,143.221-41.012,143.221-110.34C439.908,253.885,374.809,237.283,374.809,237.283z    M216.533,129.221h44.676c0,0,62.984-0.732,62.984,45.65s-44.188,51.02-44.188,51.02h-63.473V129.221z M347.629,320.611   c0,57.367-67.865,58.098-67.865,58.098h-63.23V274.227h65.547C352.023,274.715,347.629,320.611,347.629,320.611z"/>
</g>
</svg>
