<?xml version="1.0" encoding="utf-8"?>
<!-- Generator: Adobe Illustrator 15.0.2, SVG Export Plug-In . SVG Version: 6.00 Build 0)  -->
<!DOCTYPE svg PUBLIC "-//W3C//DTD SVG 1.1//EN" "http://www.w3.org/Graphics/SVG/1.1/DTD/svg11.dtd">
<svg xmlns="http://www.w3.org/2000/svg" xmlns:xlink="http://www.w3.org/1999/xlink" version="1.1" id="Calque_1" x="0px" y="0px" width="32" height="32" viewBox="0 0 512 512" enable-background="new 0 0 512 512" xml:space="preserve">
<g>
	<path fill="#333333" d="M146.123,166.057c-19.44,0-35.422,15.91-35.422,35.424v109.044c0,19.51,15.981,35.424,35.422,35.424h12.172   c19.442,0,35.435-15.914,35.435-35.424V201.481c0-19.514-15.992-35.424-35.435-35.424H146.123z M353.698,332.115   c-19.442,0-35.425,15.902-35.425,35.424v109.04c0,19.522,15.982,35.422,35.425,35.422h12.182c19.43,0,35.428-15.899,35.428-35.422   v-109.04c0-19.521-15.998-35.424-35.428-35.424H353.698z M353.698-0.001c-19.442,0-35.425,15.916-35.425,35.422v109.046   c0,19.514,15.982,35.43,35.425,35.43h12.182c19.514,0,35.428-15.916,35.428-35.43V35.423c0-19.508-15.914-35.422-35.428-35.422   h-12.182V-0.001z M297.515,76.109H6.911v27.674h290.604V76.109z M505.089,103.783V76.109h-83.028v27.674H505.089z M89.938,242.165   H6.911v27.668h83.026V242.165z M505.089,269.833v-27.668H214.486v27.668H505.089z M297.515,408.217H6.911v27.685h290.604V408.217z    M505.089,435.901v-27.685h-83.028v27.685H505.089z"/>
</g>
</svg>
